<!-- <?xml version="1.0" ?><!DOCTYPE svg  PUBLIC '-//W3C//DTD SVG 1.1//EN'  'http://www.w3.org/Graphics/SVG/1.1/DTD/svg11.dtd'><svg enable-background="new 0 0 30 30" height="40px" id="Capa_1" version="1.1" viewBox="0 0 30 30" width="40px" xml:space="preserve" xmlns="http://www.w3.org/2000/svg" xmlns:xlink="http://www.w3.org/1999/xlink"><path d="M28.7,10.2c-2.5-3-7.6-4.8-13.7-4.8c0,0,0,0,0,0h0c0,0,0,0,0,0c-6,0-11.2,1.8-13.7,4.8c-1,1.2-1.4,2.6-1.1,4  c0.2,1.2,1,2.3,2,2.8c0.6,0.3,1.3,0.4,1.9,0.4c0.3,0,0.7,0,1-0.1c-0.2,0.6-0.3,1.2-0.4,1.9c-0.2,1.8,0.1,3.1,1,4.1  c1,1.2,2.6,1.3,3.2,1.3c0.2,0,0.3,0,0.3,0h11.7c1.3,0,2.5-0.5,3.2-1.4c1-1.2,1.2-2.9,1.1-4c-0.1-0.6-0.2-1.3-0.4-1.9  c0.3,0.1,0.7,0.1,1.1,0.1c0.6,0,1.3-0.1,1.9-0.4c1-0.5,1.8-1.6,2-2.8C30,12.8,29.7,11.3,28.7,10.2z M23,22.2  c-0.5,0.6-1.2,0.9-2.1,0.9l-11.8,0c-0.1,0-1.5,0.1-2.3-0.8c-0.5-0.6-0.7-1.6-0.6-2.9c0.5-4,3.2-6.4,3.7-6.8c1.4-1.1,3.3-1.8,5.2-1.8  c1.9,0,3.6,0.6,4.9,1.8c1.9,1.6,3.3,4.3,3.7,6.8C23.8,20.2,23.7,21.4,23,22.2z M28.3,13.9c-0.2,0.8-0.6,1.5-1.3,1.8  c-1.1,0.6-2.6,0.1-3-0.1c-0.7-1.6-1.8-3-3.1-4.1c-1.6-1.4-3.7-2.1-5.9-2.1c-2.2,0-4.4,0.8-6.1,2.1c-0.4,0.3-2.1,1.8-3.2,4.2  c-0.5,0.2-1.8,0.6-2.8,0c-0.6-0.3-1.1-1-1.3-1.8c-0.2-0.9,0.1-1.9,0.8-2.7C4.7,8.5,9.4,6.9,15,6.9c5.6,0,10.3,1.6,12.5,4.3  C28.2,12,28.5,12.9,28.3,13.9z M15,12.4c-2.2,0-4.1,1.6-4.1,3.5s1.8,3.5,4.1,3.5c2.2,0,4.1-1.6,4.1-3.5S17.2,12.4,15,12.4z M15,17.9  c-1.4,0-2.6-0.9-2.6-2s1.1-2,2.6-2c1.4,0,2.6,0.9,2.6,2S16.4,17.9,15,17.9z" fill="none"  stroke="#ffa400" stroke-width="1"/></svg> -->



<svg width="150" height="50" xmlns="http://www.w3.org/2000/svg" xmlns:svg="http://www.w3.org/2000/svg">
 <!-- Created with SVG-edit - https://github.com/SVG-Edit/svgedit-->
 <g class="layer">
  <title>Layer 1</title>
  <path d="m138.00147,3.91771c-0.17149,0.81883 -0.64055,1.56624 -1.34,2.28267c-0.58038,0.59448 -0.92693,0.90587 -2.16,1.884c-0.45729,0.36275 -0.94521,0.7224 -1.96533,1.43733c-0.51114,0.35822 -1.01765,0.70634 -1.99733,1.34132c-0.86629,0.56149 -1.59676,0.99513 -2.43317,1.49217c-0.93987,0.55853 -1.61082,1.07654 -2.27084,1.72917c-0.49098,0.48549 -1.05591,1.00691 -1.81183,2.03299c-0.41258,0.56003 -0.84972,1.19331 -1.62151,1.851c-0.72949,0.62164 -1.09999,1.244 -1.78932,1.888l-0.636,0.636l-0.62201,0.47801" fill="none" id="svg_4" opacity="0" stroke="#bf5f00" stroke-dasharray="null" stroke-linecap="null" stroke-linejoin="null" stroke-width="0"/>
  <path d="m127.00147,10.91771c1,0 1.8,0 2.744,0c0.92267,0 1.60008,-0.00496 2.42133,0.01067c0.94951,0.01807 1.46852,0.02518 3.168,0.15601c0.61064,0.04701 1.2401,0.11646 1.89,0.18599c1.3602,0.14552 2.06972,0.2249 2.8,0.29468c0.74973,0.07164 2.30974,0.19083 3.11934,0.23116c0.8251,0.04111 1.66258,0.06738 2.508,0.08551c0.84927,0.01822 1.69865,0.02681 2.54401,0.03149c0.83733,0.00464 2.472,0.004 3.26199,0.00467c0.77,0.00066 1.52002,0.0022 2.25,0.0105c0.71004,0.00807 1.40015,0.02139 2.07001,0.04649c0.65015,0.02435 2.48137,0.15945 3.05666,0.22684c1.12779,0.1321 1.68712,0.21901 2.25334,0.29066c1.16589,0.14754 2.41301,0.26378 3.07733,0.30383c0.6877,0.04147 1.39381,0.07239 2.836,0.10068c0.72394,0.01421 1.442,0.01756 2.14799,0.0195c1.35201,0.00371 1.9872,-0.00296 3.17151,0.00583c0.55118,0.00409 1.57828,0.00499 2.50583,0.08083c1.23489,0.10097 1.96159,0.25026 2.61217,0.4355c0.88327,0.2515 1.86833,0.69975 2.54167,0.95834c1.00868,0.38739 1.80956,0.50171 2.53549,0.5195c1.07436,0.02632 2.00616,0.00133 2.80717,0.00133c0.74066,0 2.01151,-0.00363 2.64749,0.00133c0.69205,0.00539 1.78699,0.01808 2.864,0.16534c0.6837,0.09348 1.625,0.33333 2.205,0.48067l1.04018,0.23116l0.90067,0.10068" fill="none" id="svg_5" opacity="0" stroke="#bf5f00" stroke-dasharray="null" stroke-linecap="null" stroke-linejoin="null" stroke-width="0"/>
  <ellipse cx="248.001472" cy="55.917709" fill="#003f7f" id="svg_14" opacity="0" rx="59" ry="15" stroke="#f7f7f7" stroke-dasharray="null" stroke-linecap="null" stroke-linejoin="null" stroke-width="0"/>
  <polygon fill="none" id="svg_18" opacity="0" points="81.61319732666016,34.91770935058594 57.69708251953125,67.83540344238281 19,55.261962890625 19,14.573455810546875 57.69708251953125,2 81.61319732666016,34.91770935058594 " stroke="#f7f7f7" stroke-width="0"/>
  <polygon fill="none" id="svg_19" opacity="0" points="156.00146484375,27.917709350585938 156.00146484375,27.917709350585938 156.00146484375,27.917709350585938 156.00146484375,27.917709350585938 156.00146484375,27.917709350585938 156.00146484375,27.917709350585938 " stroke="#f7f7f7" stroke-width="0"/>
  <text fill="#fda400" font-family="Fantasy" font-size="26" id="svg_7" stroke="#f7f7f7" stroke-dasharray="null" stroke-linecap="null" stroke-linejoin="null" stroke-width="0" text-anchor="middle" x="74.001472" xml:space="preserve" y="35.917709">PHONE STORE</text>
 </g>
</svg>



